<svg width="19" height="15" viewBox="0 0 19 15" fill="none" xmlns="http://www.w3.org/2000/svg">
<path fill-rule="evenodd" clip-rule="evenodd" d="M0.135173 1.08122C0.135173 0.505921 0.601543 0.0395508 1.17684 0.0395508H17.8333C18.4086 0.0395508 18.875 0.505921 18.875 1.08122V12.8773C18.875 14.0279 17.9423 14.9606 16.7917 14.9606H2.20833C1.05774 14.9606 0.125 14.0279 0.125 12.8773V1.41895C0.125 1.36934 0.128467 1.32055 0.135173 1.27279V1.08122ZM2.20833 3.39763V12.8773H16.7917V3.39799L11.7099 8.47977C10.4895 9.70015 8.51086 9.70016 7.29047 8.47977L2.20833 3.39763ZM3.84617 2.08919H15.1542L10.2367 7.00663C9.82995 7.41342 9.1704 7.41342 8.76361 7.00663L3.84617 2.08919Z" fill="#14191F"/>
</svg>
