<svg width="21" height="21" viewBox="0 0 21 21" fill="none" xmlns="http://www.w3.org/2000/svg">
<path d="M18.25 11.5418C18.0208 11.5418 17.7813 11.4688 17.5521 11.4168C17.088 11.3145 16.632 11.1787 16.1875 11.0105C15.7043 10.8347 15.1731 10.8438 14.6962 11.0361C14.2193 11.2284 13.8303 11.5903 13.6042 12.0522L13.375 12.5209C12.3604 11.9565 11.4281 11.2555 10.6042 10.4376C9.78623 9.61365 9.08525 8.68133 8.52085 7.66675L8.95835 7.37509C9.42019 7.14896 9.78208 6.76001 9.97438 6.2831C10.1667 5.80618 10.1758 5.27499 10 4.79175C9.83462 4.34636 9.69891 3.8905 9.59376 3.42717C9.54168 3.198 9.50001 2.95842 9.46876 2.71884C9.34227 1.98511 8.95796 1.32065 8.38504 0.845127C7.81212 0.369604 7.08824 0.114262 6.34376 0.125086H3.21876C2.76984 0.120871 2.32527 0.213434 1.91534 0.396472C1.5054 0.579511 1.13971 0.848728 0.84317 1.1858C0.546629 1.52287 0.326195 1.91987 0.196876 2.34979C0.0675567 2.77971 0.0323878 3.23244 0.0937634 3.67717C0.648699 8.04111 2.64171 12.0958 5.75798 15.2007C8.87426 18.3057 12.9362 20.2839 17.3021 20.823H17.6979C18.4661 20.8241 19.2077 20.5423 19.7813 20.0313C20.1108 19.7366 20.3741 19.3753 20.5536 18.9713C20.7332 18.5672 20.825 18.1297 20.8229 17.6876V14.5626C20.8102 13.839 20.5467 13.1423 20.0774 12.5914C19.6082 12.0405 18.9623 11.6695 18.25 11.5418ZM18.7708 17.7918C18.7707 17.9397 18.739 18.0858 18.6779 18.2205C18.6168 18.3552 18.5278 18.4754 18.4167 18.573C18.3003 18.6735 18.1642 18.7486 18.0171 18.7934C17.87 18.8383 17.7152 18.8519 17.5625 18.8334C13.6614 18.3332 10.0378 16.5485 7.26326 13.7608C4.48876 10.9731 2.72127 7.34106 2.2396 3.43759C2.22302 3.285 2.23755 3.13064 2.28231 2.98383C2.32707 2.83702 2.40113 2.7008 2.50001 2.58342C2.59763 2.47231 2.71779 2.38325 2.85249 2.32219C2.9872 2.26112 3.13336 2.22944 3.28126 2.22925H6.40626C6.6485 2.22386 6.88504 2.30309 7.07516 2.45328C7.26529 2.60348 7.39711 2.81526 7.44793 3.05217C7.4896 3.33689 7.54168 3.61814 7.60418 3.89592C7.72451 4.44503 7.88466 4.98465 8.08335 5.5105L6.62501 6.18759C6.50032 6.2448 6.38816 6.32607 6.29497 6.42675C6.20178 6.52742 6.12939 6.64552 6.08196 6.77425C6.03454 6.90298 6.013 7.03981 6.0186 7.17688C6.0242 7.31395 6.05683 7.44857 6.1146 7.573C7.61376 10.7842 10.1951 13.3655 13.4063 14.8647C13.6599 14.9689 13.9443 14.9689 14.1979 14.8647C14.3278 14.8182 14.4472 14.7464 14.5491 14.6534C14.6511 14.5604 14.7335 14.4481 14.7917 14.323L15.4375 12.8647C15.976 13.0573 16.5256 13.2173 17.0833 13.3438C17.3611 13.4063 17.6424 13.4584 17.9271 13.5001C18.164 13.5509 18.3758 13.6827 18.526 13.8729C18.6762 14.063 18.7554 14.2995 18.75 14.5418L18.7708 17.7918Z" fill="black"/>
</svg>
